<svg width="34" height="34" viewBox="0 0 34 34" fill="none" xmlns="http://www.w3.org/2000/svg">
<path d="M17 2V12M17 2L12.8333 6.16667M17 2L21.1667 6.16667M6.70555 12.0006C7.39716 12.6114 7.83333 13.5048 7.83333 14.5C7.83333 16.3409 6.34095 17.8333 4.5 17.8333C3.50476 17.8333 2.61138 17.3972 2.00061 16.7055M6.70555 12.0006C6.9024 12 7.11126 12 7.33333 12H10.3333M6.70555 12.0006C5.24754 12.0051 4.44825 12.0432 3.82003 12.3633C3.19282 12.6829 2.68289 13.1928 2.36331 13.82C2.04322 14.4483 2.00514 15.2475 2.00061 16.7055M2.00061 16.7055C2 16.9024 2 17.1113 2 17.3333V26.6667C2 26.8887 2 27.0976 2.00061 27.2945M2.00061 27.2945C2.61138 26.6028 3.50476 26.1667 4.5 26.1667C6.34095 26.1667 7.83333 27.6591 7.83333 29.5C7.83333 30.4952 7.39716 31.3886 6.70555 31.9994M2.00061 27.2945C2.00514 28.7525 2.04322 29.5517 2.36331 30.18C2.68289 30.8072 3.19282 31.3171 3.82003 31.6367C4.44825 31.9568 5.24754 31.9949 6.70555 31.9994M6.70555 31.9994C6.9024 32 7.11126 32 7.33333 32H26.6667C26.8887 32 27.0976 32 27.2945 31.9994M32 27.2951C31.3892 26.6031 30.4956 26.1667 29.5 26.1667C27.6591 26.1667 26.1667 27.6591 26.1667 29.5C26.1667 30.4952 26.6028 31.3886 27.2945 31.9994M32 27.2951C32.0006 27.0981 32 26.889 32 26.6667V17.3333C32 17.1113 32 16.9024 31.9994 16.7055M32 27.2951C31.9955 28.7527 31.9567 29.5518 31.6367 30.18C31.3171 30.8072 30.8072 31.3171 30.18 31.6367C29.5517 31.9568 28.7525 31.9949 27.2945 31.9994M31.9994 16.7055C31.3886 17.3972 30.4952 17.8333 29.5 17.8333C27.6591 17.8333 26.1667 16.3409 26.1667 14.5C26.1667 13.5048 26.6028 12.6114 27.2945 12.0006M31.9994 16.7055C31.9949 15.2475 31.9568 14.4483 31.6367 13.82C31.3171 13.1928 30.8072 12.6829 30.18 12.3633C29.5517 12.0432 28.7525 12.0051 27.2945 12.0006M27.2945 12.0006C27.0976 12 26.8887 12 26.6667 12H23.6667M20.3333 22C20.3333 23.8409 18.8409 25.3333 17 25.3333C15.1591 25.3333 13.6667 23.8409 13.6667 22C13.6667 20.1591 15.1591 18.6667 17 18.6667C18.8409 18.6667 20.3333 20.1591 20.3333 22Z" stroke="#DE3ACE" stroke-width="3" stroke-linecap="round" stroke-linejoin="round"/>
</svg>
