<svg width="34" height="30" viewBox="0 0 34 30" fill="none" xmlns="http://www.w3.org/2000/svg">
<path d="M18.6667 18.3348L8.66667 18.3334M18.6667 18.3348L14.5 14.1667M18.6667 18.3348L14.5 22.5001M32 15.0001V13.6667C32 11.7999 32 10.8665 31.6367 10.1534C31.3171 9.52624 30.8072 9.0163 30.18 8.69673C29.4669 8.33341 28.5335 8.33341 26.6667 8.33341H2M32 15.0001V21.6667M32 15.0001H28.6667C26.8257 15.0001 25.3333 16.4925 25.3333 18.3334C25.3333 20.1744 26.8257 21.6667 28.6667 21.6667H32M32 21.6667V23.0001C32 24.8669 32 25.8003 31.6367 26.5134C31.3171 27.1406 30.8072 27.6505 30.18 27.9701C29.4669 28.3334 28.5335 28.3334 26.6667 28.3334H7.33333C5.46649 28.3334 4.53307 28.3334 3.82003 27.9701C3.19282 27.6505 2.68289 27.1406 2.36331 26.5134C2 25.8003 2 24.8669 2 23.0001V8.33341M27 8.33341V7.00008C27 5.13324 27 4.19982 26.6367 3.48678C26.3171 2.85957 25.8072 2.34964 25.18 2.03006C24.4669 1.66675 23.5335 1.66675 21.6667 1.66675H7.33333C5.46649 1.66675 4.53307 1.66675 3.82003 2.03006C3.19282 2.34964 2.68289 2.85957 2.36331 3.48678C2 4.19982 2 5.13324 2 7.00008V8.33341" stroke="#8252E9" stroke-width="3" stroke-linecap="round" stroke-linejoin="round"/>
</svg>
