<svg width="34" height="30" viewBox="0 0 34 30" fill="none" xmlns="http://www.w3.org/2000/svg">
<path d="M18.6667 28.3334V25.0001C18.6667 20.3977 14.9357 16.6667 10.3333 16.6667C5.73096 16.6667 2 20.3977 2 25.0001V28.3334H18.6667ZM18.6667 28.3334H32V26.6667C32 21.7575 28.269 18.3334 23.6667 18.3334C21.3111 18.3334 19.1838 19.3759 17.6682 21.0519M15.3333 6.66675C15.3333 9.42817 13.0948 11.6667 10.3333 11.6667C7.57191 11.6667 5.33333 9.42817 5.33333 6.66675C5.33333 3.90532 7.57191 1.66675 10.3333 1.66675C13.0948 1.66675 15.3333 3.90532 15.3333 6.66675ZM27 10.0001C27 11.841 25.5076 13.3334 23.6667 13.3334C21.8257 13.3334 20.3333 11.841 20.3333 10.0001C20.3333 8.15913 21.8257 6.66675 23.6667 6.66675C25.5076 6.66675 27 8.15913 27 10.0001Z" stroke="#EA2D4D" stroke-width="3" stroke-linecap="round" stroke-linejoin="round"/>
</svg>
