<svg width="34" height="34" viewBox="0 0 34 34" fill="none" xmlns="http://www.w3.org/2000/svg">
<path d="M7 26.1664C7.69638 25.6433 8.56199 25.3333 9.5 25.3333C11.8012 25.3333 13.6667 27.1988 13.6667 29.5C13.6667 30.438 13.3567 31.3036 12.8336 32M27 26.1664C26.3036 25.6433 25.438 25.3333 24.5 25.3333C22.1988 25.3333 20.3333 27.1988 20.3333 29.5C20.3333 30.438 20.6433 31.3036 21.1664 32M26.9999 13.6666C28.6472 13.6653 29.5107 13.6444 30.18 13.3034C30.8072 12.9838 31.3171 12.4738 31.6367 11.8466C32 11.1336 32 10.2002 32 8.33333V7.33333C32 5.46649 32 4.53307 31.6367 3.82003C31.3171 3.19282 30.8072 2.68289 30.18 2.36331C29.4669 2 28.5335 2 26.6667 2H7.33333C5.46649 2 4.53307 2 3.82003 2.36331C3.19282 2.68289 2.68289 3.19282 2.36331 3.82003C2 4.53307 2 5.46649 2 7.33333V8.33333C2 10.2002 2 11.1336 2.36331 11.8466C2.68289 12.4738 3.19282 12.9838 3.82003 13.3034C4.48932 13.6444 5.35278 13.6653 7.00008 13.6666M26.9999 13.6666C27 13.7743 27 13.8854 27 14V26.6667C27 28.5335 27 29.4669 26.6367 30.18C26.3171 30.8072 25.8072 31.3171 25.18 31.6367C24.4669 32 23.5335 32 21.6667 32H12.3333C10.4665 32 9.53307 32 8.82003 31.6367C8.19282 31.3171 7.68289 30.8072 7.36331 30.18C7 29.4669 7 28.5335 7 26.6667V14C7 13.8854 7 13.7743 7.00008 13.6666M26.9999 13.6666C26.9986 12.0194 26.9777 11.156 26.6367 10.4867C26.3171 9.85949 25.8072 9.34956 25.18 9.02998C24.4669 8.66667 23.5335 8.66667 21.6667 8.66667H12.3333C10.4665 8.66667 9.53307 8.66667 8.82003 9.02998C8.19282 9.34956 7.68289 9.85949 7.36331 10.4867C7.0223 11.156 7.00137 12.0194 7.00008 13.6666M20.3333 17C20.3333 18.8409 18.8409 20.3333 17 20.3333C15.1591 20.3333 13.6667 18.8409 13.6667 17C13.6667 15.1591 15.1591 13.6667 17 13.6667C18.8409 13.6667 20.3333 15.1591 20.3333 17Z" stroke="#45B369" stroke-width="3" stroke-linecap="round" stroke-linejoin="round"/>
</svg>
