<svg width="34" height="34" viewBox="0 0 34 34" fill="none" xmlns="http://www.w3.org/2000/svg">
<path d="M2 32H32M2 27H32M6.70555 2.00061C7.39716 2.61138 7.83333 3.50475 7.83333 4.5C7.83333 6.34095 6.34095 7.83333 4.5 7.83333C3.50476 7.83333 2.61138 7.39716 2.00061 6.70555M6.70555 2.00061C6.9024 2 7.11126 2 7.33333 2H26.6667C26.8887 2 27.0976 2 27.2945 2.00061M6.70555 2.00061C5.24754 2.00514 4.44825 2.04322 3.82003 2.36331C3.19282 2.68289 2.68289 3.19282 2.36331 3.82003C2.04322 4.44825 2.00514 5.24754 2.00061 6.70555M2.00061 6.70555C2 6.9024 2 7.11126 2 7.33333V16.6667C2 16.8887 2 17.0976 2.00061 17.2945M2.00061 17.2945C2.61138 16.6028 3.50476 16.1667 4.5 16.1667C6.34095 16.1667 7.83333 17.6591 7.83333 19.5C7.83333 20.4952 7.39716 21.3886 6.70555 21.9994M2.00061 17.2945C2.00514 18.7525 2.04322 19.5517 2.36331 20.18C2.68289 20.8072 3.19282 21.3171 3.82003 21.6367C4.44825 21.9568 5.24754 21.9949 6.70555 21.9994M6.70555 21.9994C6.9024 22 7.11126 22 7.33333 22H26.6667C26.8887 22 27.0976 22 27.2945 21.9994M32 17.2951C31.3892 16.6031 30.4956 16.1667 29.5 16.1667C27.6591 16.1667 26.1667 17.6591 26.1667 19.5C26.1667 20.4952 26.6028 21.3886 27.2945 21.9994M32 17.2951C32.0006 17.0981 32 16.889 32 16.6667V7.33333C32 7.11126 32 6.9024 31.9994 6.70555M32 17.2951C31.9955 18.7527 31.9567 19.5518 31.6367 20.18C31.3171 20.8072 30.8072 21.3171 30.18 21.6367C29.5517 21.9568 28.7525 21.9949 27.2945 21.9994M31.9994 6.70555C31.3886 7.39716 30.4952 7.83333 29.5 7.83333C27.6591 7.83333 26.1667 6.34095 26.1667 4.5C26.1667 3.50475 26.6028 2.61138 27.2945 2.00061M31.9994 6.70555C31.9949 5.24754 31.9568 4.44825 31.6367 3.82003C31.3171 3.19282 30.8072 2.68289 30.18 2.36331C29.5517 2.04322 28.7525 2.00514 27.2945 2.00061M20.3333 12C20.3333 13.8409 18.8409 15.3333 17 15.3333C15.1591 15.3333 13.6667 13.8409 13.6667 12C13.6667 10.1591 15.1591 8.66667 17 8.66667C18.8409 8.66667 20.3333 10.1591 20.3333 12Z" stroke="white" stroke-width="3" stroke-linecap="round" stroke-linejoin="round"/>
</svg>
