<svg width="30" height="34" viewBox="0 0 30 34" fill="none" xmlns="http://www.w3.org/2000/svg">
<path d="M18.3333 14.5C18.3333 16.8012 14.6024 18.6667 9.99999 18.6667C5.39762 18.6667 1.66666 16.8012 1.66666 14.5M18.3333 14.5C18.3333 12.1988 14.6024 10.3333 9.99999 10.3333C5.39762 10.3333 1.66666 12.1988 1.66666 14.5M18.3333 14.5V21.1667M1.66666 14.5V21.1667M28.3333 6.16667C28.3333 3.86548 24.6024 2 20 2C16.7015 2 13.8506 2.95821 12.5 4.34828M28.3333 6.16667C28.3333 7.70892 26.6575 9.05547 24.1667 9.77591M28.3333 6.16667V20.3333C28.3333 21.5671 26.6575 22.6444 24.1667 23.2207M28.3333 13.6667C28.3333 14.9278 26.5824 16.0254 23.9999 16.5916M18.3333 21.1667C18.3333 23.4679 14.6024 25.3333 9.99999 25.3333C5.39762 25.3333 1.66666 23.4679 1.66666 21.1667M18.3333 21.1667V27.8333C18.3333 30.1345 14.6024 32 9.99999 32C5.39762 32 1.66666 30.1345 1.66666 27.8333V21.1667" stroke="white" stroke-width="3" stroke-linecap="round" stroke-linejoin="round"/>
</svg>
